<?xml version="1.0" encoding="UTF-8" standalone="no"?>
<svg
   xmlns:dc="http://purl.org/dc/elements/1.1/"
   xmlns:cc="http://creativecommons.org/ns#"
   xmlns:rdf="http://www.w3.org/1999/02/22-rdf-syntax-ns#"
   xmlns:svg="http://www.w3.org/2000/svg"
   xmlns="http://www.w3.org/2000/svg"
   xmlns:sodipodi="http://sodipodi.sourceforge.net/DTD/sodipodi-0.dtd"
   xmlns:inkscape="http://www.inkscape.org/namespaces/inkscape"
   viewBox="0 0 407 129"
   version="1.1"
   id="svg8734"
   height="129"
   width="407"
   inkscape:version="0.91pre2+osxmenu r12791"
   sodipodi:docname="hp-research-experimental.svg">
  <sodipodi:namedview
     pagecolor="#ffffff"
     bordercolor="#666666"
     borderopacity="1"
     objecttolerance="10"
     gridtolerance="10"
     guidetolerance="10"
     inkscape:pageopacity="0"
     inkscape:pageshadow="2"
     inkscape:window-width="980"
     inkscape:window-height="796"
     id="namedview126"
     showgrid="false"
     inkscape:zoom="1.4889435"
     inkscape:cx="203.5"
     inkscape:cy="64.5"
     inkscape:window-x="0"
     inkscape:window-y="23"
     inkscape:window-maximized="0"
     inkscape:current-layer="svg8734" />
  <defs
     id="defs8736">
    <marker
       orient="auto"
       refY="0"
       refX="0"
       id="marker10999"
       style="overflow:visible">
      <path
         id="path11001"
         d="M 0,5.65 0,-5.65"
         style="fill:none;fill-opacity:0.75;fill-rule:evenodd;stroke:#000000;stroke-width:1pt;stroke-opacity:1"
         transform="scale(0.8,0.8)" />
    </marker>
    <marker
       orient="auto"
       refY="0"
       refX="0"
       id="marker10809"
       style="overflow:visible">
      <path
         id="path10811"
         d="M -2.5,-1 C -2.5,1.76 -4.74,4 -7.5,4 -10.26,4 -12.5,1.76 -12.5,-1 -12.5,-3.76 -10.26,-6 -7.5,-6 -4.74,-6 -2.5,-3.76 -2.5,-1 Z"
         style="fill:#000000;fill-opacity:1;fill-rule:evenodd;stroke:#000000;stroke-width:1pt;stroke-opacity:1"
         transform="matrix(0.4,0,0,0.4,2.96,0.4)" />
    </marker>
    <marker
       style="overflow:visible"
       id="marker10659"
       refX="0"
       refY="0"
       orient="auto">
      <path
         transform="scale(0.8,0.8)"
         style="fill:none;fill-opacity:0.75;fill-rule:evenodd;stroke:#000000;stroke-width:1pt;stroke-opacity:1"
         d="M 0,5.65 0,-5.65"
         id="path10661" />
    </marker>
    <marker
       style="overflow:visible"
       id="marker8752"
       refX="0"
       refY="0"
       orient="auto">
      <path
         transform="scale(0.8,0.8)"
         style="fill:none;fill-opacity:0.75;fill-rule:evenodd;stroke:#000000;stroke-width:1pt;stroke-opacity:1"
         d="M 0,5.65 0,-5.65"
         id="path8754" />
    </marker>
    <clipPath
       clipPathUnits="userSpaceOnUse"
       id="clipPath9674">
      <path
         id="path9676"
         d="M 338.52906,44.420671 408.08039,17.863851 379.3201,118.28191 368.36866,122.63349 Z"
         style="opacity:1;fill:none;fill-opacity:1;stroke:#000000;stroke-width:1.25;stroke-miterlimit:4;stroke-dasharray:none;stroke-dashoffset:0;stroke-opacity:1" />
    </clipPath>
  </defs>
  <metadata
     id="metadata8739">
    <rdf:RDF>
      <cc:Work
         rdf:about="">
        <dc:format>image/svg+xml</dc:format>
        <dc:type
           rdf:resource="http://purl.org/dc/dcmitype/StillImage" />
        <dc:title />
      </cc:Work>
    </rdf:RDF>
  </metadata>
  <g
     id="g8007"
     transform="translate(-43.257907,-7.4858052)">
    <g
       id="g7931"
       transform="translate(1.4796638,-2.0090647)">
      <circle
         r="13.006222"
         cy="74.156616"
         cx="246.27824"
         id="path7891"
         style="opacity:1;fill:none;fill-opacity:1;stroke:#000000;stroke-width:1.25;stroke-linecap:butt;stroke-linejoin:round;stroke-miterlimit:4;stroke-dasharray:none;stroke-dashoffset:0;stroke-opacity:1"
         d="M 259.28447,74.156616 A 13.006222,13.006222 0 0 1 246.27824,87.162838 13.006222,13.006222 0 0 1 233.27202,74.156616 13.006222,13.006222 0 0 1 246.27824,61.150394 13.006222,13.006222 0 0 1 259.28447,74.156616 Z" />
      <circle
         r="31.006121"
         cy="74.156616"
         cx="246.27824"
         id="path7893"
         style="opacity:1;fill:none;fill-opacity:1;stroke:#000000;stroke-width:1.25;stroke-linecap:butt;stroke-linejoin:round;stroke-miterlimit:4;stroke-dasharray:none;stroke-dashoffset:0;stroke-opacity:1"
         d="M 277.28436,74.156616 A 31.006121,31.006121 0 0 1 246.27824,105.16274 31.006121,31.006121 0 0 1 215.27212,74.156616 31.006121,31.006121 0 0 1 246.27824,43.150496 31.006121,31.006121 0 0 1 277.28436,74.156616 Z" />
      <circle
         r="50.122829"
         cy="74.156616"
         cx="246.27824"
         id="path7895"
         style="opacity:1;fill:none;fill-opacity:1;stroke:#000000;stroke-width:1.25;stroke-linecap:butt;stroke-linejoin:round;stroke-miterlimit:4;stroke-dasharray:none;stroke-dashoffset:0;stroke-opacity:1"
         d="M 296.40107,74.156616 A 50.122829,50.122829 0 0 1 246.27824,124.27945 50.122829,50.122829 0 0 1 196.15541,74.156616 50.122829,50.122829 0 0 1 246.27824,24.033787 50.122829,50.122829 0 0 1 296.40107,74.156616 Z" />
      <g
         style="stroke-width:1.53113782;stroke-miterlimit:4;stroke-dasharray:none"
         transform="matrix(0.81638638,0,0,0.81638638,33.995241,14.951242)"
         id="g7905">
        <circle
           style="opacity:1;fill:#000000;fill-opacity:1;stroke:#000000;stroke-width:1.53113782;stroke-linecap:butt;stroke-linejoin:round;stroke-miterlimit:4;stroke-dasharray:none;stroke-dashoffset:0;stroke-opacity:1"
           id="path7897"
           cx="260.02762"
           cy="34.842701"
           r="3.0304577"
           d="M 263.05808,34.842701 A 3.0304577,3.0304577 0 0 1 260.02762,37.873159 3.0304577,3.0304577 0 0 1 256.99716,34.842701 3.0304577,3.0304577 0 0 1 260.02762,31.812243 3.0304577,3.0304577 0 0 1 263.05808,34.842701 Z" />
        <circle
           r="3.0304577"
           cy="110.19984"
           cx="260.02762"
           id="circle7899"
           style="opacity:1;fill:#000000;fill-opacity:1;stroke:#000000;stroke-width:1.53113782;stroke-linecap:butt;stroke-linejoin:round;stroke-miterlimit:4;stroke-dasharray:none;stroke-dashoffset:0;stroke-opacity:1"
           d="M 263.05808,110.19984 A 3.0304577,3.0304577 0 0 1 260.02762,113.23029 3.0304577,3.0304577 0 0 1 256.99716,110.19984 3.0304577,3.0304577 0 0 1 260.02762,107.16938 3.0304577,3.0304577 0 0 1 263.05808,110.19984 Z" />
        <circle
           r="3.0304577"
           cy="222.34904"
           cx="-72.521271"
           id="circle7901"
           style="opacity:1;fill:#000000;fill-opacity:1;stroke:#000000;stroke-width:1.53113782;stroke-linecap:butt;stroke-linejoin:round;stroke-miterlimit:4;stroke-dasharray:none;stroke-dashoffset:0;stroke-opacity:1"
           transform="matrix(0,-1,1,0,0,0)"
           d="M -69.490813,222.34904 A 3.0304577,3.0304577 0 0 1 -72.521271,225.3795 3.0304577,3.0304577 0 0 1 -75.551728,222.34904 3.0304577,3.0304577 0 0 1 -72.521271,219.31859 3.0304577,3.0304577 0 0 1 -69.490813,222.34904 Z" />
        <circle
           style="opacity:1;fill:#000000;fill-opacity:1;stroke:#000000;stroke-width:1.53113782;stroke-linecap:butt;stroke-linejoin:round;stroke-miterlimit:4;stroke-dasharray:none;stroke-dashoffset:0;stroke-opacity:1"
           id="circle7903"
           cx="-72.521271"
           cy="297.70618"
           r="3.0304577"
           transform="matrix(0,-1,1,0,0,0)"
           d="M -69.490813,297.70618 A 3.0304577,3.0304577 0 0 1 -72.521271,300.73663 3.0304577,3.0304577 0 0 1 -75.551728,297.70618 3.0304577,3.0304577 0 0 1 -72.521271,294.67572 3.0304577,3.0304577 0 0 1 -69.490813,297.70618 Z" />
      </g>
      <g
         style="stroke-width:1.44385457;stroke-miterlimit:4;stroke-dasharray:none"
         transform="matrix(0.61216934,-0.61216934,0.61216934,0.61216934,45.745205,191.76758)"
         id="g7925">
        <circle
           r="2.8577051"
           cy="10.197361"
           cx="259.84967"
           id="circle7913"
           style="opacity:1;fill:#000000;fill-opacity:1;stroke:#000000;stroke-width:1.44385457;stroke-linecap:butt;stroke-linejoin:round;stroke-miterlimit:4;stroke-dasharray:none;stroke-dashoffset:0;stroke-opacity:1"
           d="M 262.70738,10.197361 A 2.8577051,2.8577051 0 0 1 259.84967,13.055066 2.8577051,2.8577051 0 0 1 256.99197,10.197361 2.8577051,2.8577051 0 0 1 259.84967,7.3396559 2.8577051,2.8577051 0 0 1 262.70738,10.197361 Z" />
        <circle
           style="opacity:1;fill:#000000;fill-opacity:1;stroke:#000000;stroke-width:1.44385457;stroke-linecap:butt;stroke-linejoin:round;stroke-miterlimit:4;stroke-dasharray:none;stroke-dashoffset:0;stroke-opacity:1"
           id="circle7915"
           cx="259.84967"
           cy="125.25873"
           r="2.8577051"
           d="M 262.70738,125.25873 A 2.8577051,2.8577051 0 0 1 259.84967,128.11643 2.8577051,2.8577051 0 0 1 256.99197,125.25873 2.8577051,2.8577051 0 0 1 259.84967,122.40102 2.8577051,2.8577051 0 0 1 262.70738,125.25873 Z" />
        <circle
           transform="matrix(0,-1,1,0,0,0)"
           style="opacity:1;fill:#000000;fill-opacity:1;stroke:#000000;stroke-width:1.44385457;stroke-linecap:butt;stroke-linejoin:round;stroke-miterlimit:4;stroke-dasharray:none;stroke-dashoffset:0;stroke-opacity:1"
           id="circle7917"
           cx="-67.72805"
           cy="202.31898"
           r="2.8577051"
           d="M -64.870345,202.31898 A 2.8577051,2.8577051 0 0 1 -67.72805,205.17669 2.8577051,2.8577051 0 0 1 -70.585755,202.31898 2.8577051,2.8577051 0 0 1 -67.72805,199.46128 2.8577051,2.8577051 0 0 1 -64.870345,202.31898 Z" />
        <circle
           transform="matrix(0,-1,1,0,0,0)"
           r="2.8577051"
           cy="317.38034"
           cx="-67.72805"
           id="circle7919"
           style="opacity:1;fill:#000000;fill-opacity:1;stroke:#000000;stroke-width:1.44385457;stroke-linecap:butt;stroke-linejoin:round;stroke-miterlimit:4;stroke-dasharray:none;stroke-dashoffset:0;stroke-opacity:1"
           d="M -64.870345,317.38034 A 2.8577051,2.8577051 0 0 1 -67.72805,320.23805 2.8577051,2.8577051 0 0 1 -70.585755,317.38034 2.8577051,2.8577051 0 0 1 -67.72805,314.52264 2.8577051,2.8577051 0 0 1 -64.870345,317.38034 Z" />
      </g>
    </g>
    <rect
       rx="1"
       y="9.3203268"
       x="184.93068"
       height="125.65445"
       width="125.65446"
       id="rect8005"
       style="opacity:1;fill:none;fill-opacity:1;stroke:#000000;stroke-width:1.25;stroke-linecap:butt;stroke-linejoin:round;stroke-miterlimit:4;stroke-dasharray:none;stroke-dashoffset:0;stroke-opacity:1" />
  </g>
  <g
     transform="translate(-306.78809,-210.88186)"
     id="g8288">
    <rect
       rx="1"
       y="212.96065"
       x="585.68817"
       height="125.65445"
       width="125.65446"
       id="rect7326"
       style="opacity:1;fill:none;fill-opacity:1;stroke:#000000;stroke-width:1.25;stroke-linecap:butt;stroke-linejoin:round;stroke-miterlimit:4;stroke-dasharray:none;stroke-dashoffset:0;stroke-opacity:1" />
    <g
       transform="translate(19.808216,1.4805636)"
       id="g16494">
      <rect
         rx="1"
         y="231.3622"
         x="585.20715"
         height="87"
         width="87"
         id="rect7328"
         style="opacity:1;fill:none;fill-opacity:1;stroke:#000000;stroke-width:1.25;stroke-linecap:butt;stroke-linejoin:round;stroke-miterlimit:4;stroke-dasharray:none;stroke-dashoffset:0;stroke-opacity:1" />
      <path
         inkscape:connector-curvature="0"
         style="fill:none;stroke:#000000;stroke-width:1.25;stroke-miterlimit:4;stroke-dasharray:none"
         d="M 637.07979,231.36071 636.68009,232.52097"
         id="path16334" />
      <path
         inkscape:connector-curvature="0"
         style="fill:none;stroke:#000000;stroke-width:1.25;stroke-miterlimit:4;stroke-dasharray:none"
         d="M 637.53589,230.03696 637.07979,231.36071"
         id="path16332" />
      <path
         inkscape:connector-curvature="0"
         style="fill:none;stroke:#000000;stroke-width:1.25;stroke-miterlimit:4;stroke-dasharray:none"
         d="M 607.53849,231.36125 610.39579,249.29852"
         id="path16330" />
      <path
         inkscape:connector-curvature="0"
         style="fill:none;stroke:#000000;stroke-width:1.25;stroke-miterlimit:4;stroke-dasharray:none"
         d="M 610.39579,249.29852 616.04429,253.80785"
         id="path16326" />
      <path
         inkscape:connector-curvature="0"
         style="fill:none;stroke:#000000;stroke-width:1.25;stroke-miterlimit:4;stroke-dasharray:none"
         d="M 636.68009,232.52097 616.04429,253.80785"
         id="path16324" />
      <path
         inkscape:connector-curvature="0"
         style="fill:none;stroke:#000000;stroke-width:1.25;stroke-miterlimit:4;stroke-dasharray:none"
         d="M 616.04429,253.80785 616.17119,253.97308"
         id="path16322" />
      <path
         inkscape:connector-curvature="0"
         style="fill:none;stroke:#000000;stroke-width:1.25;stroke-miterlimit:4;stroke-dasharray:none"
         d="M 638.68449,231.36102 657.13239,252.62723"
         id="path16320" />
      <path
         inkscape:connector-curvature="0"
         style="fill:none;stroke:#000000;stroke-width:1.25;stroke-miterlimit:4;stroke-dasharray:none"
         d="M 637.53589,230.03696 638.68449,231.36102"
         id="path16318" />
      <path
         inkscape:connector-curvature="0"
         style="fill:none;stroke:#000000;stroke-width:1.25;stroke-miterlimit:4;stroke-dasharray:none"
         d="M 616.17119,253.97308 625.63499,258.78508"
         id="path16316" />
      <path
         inkscape:connector-curvature="0"
         style="fill:none;stroke:#000000;stroke-width:1.25;stroke-miterlimit:4;stroke-dasharray:none"
         d="M 625.63499,258.78508 631.39329,258.02017"
         id="path16314" />
      <path
         inkscape:connector-curvature="0"
         style="fill:none;stroke:#000000;stroke-width:1.25;stroke-miterlimit:4;stroke-dasharray:none"
         d="M 596.88099,259.86457 610.39579,249.29852"
         id="path16310" />
      <path
         inkscape:connector-curvature="0"
         style="fill:none;stroke:#000000;stroke-width:1.25;stroke-miterlimit:4;stroke-dasharray:none"
         d="M 593.78809,260.22924 596.88099,259.86457"
         id="path16304" />
      <path
         inkscape:connector-curvature="0"
         style="fill:none;stroke:#000000;stroke-width:1.25;stroke-miterlimit:4;stroke-dasharray:none"
         d="M 590.95409,261.59545 593.78809,260.22924"
         id="path16302" />
      <path
         inkscape:connector-curvature="0"
         style="fill:none;stroke:#000000;stroke-width:1.25;stroke-miterlimit:4;stroke-dasharray:none"
         d="M 596.88099,259.86457 609.75349,269.40251"
         id="path16300" />
      <path
         inkscape:connector-curvature="0"
         style="fill:none;stroke:#000000;stroke-width:1.25;stroke-miterlimit:4;stroke-dasharray:none"
         d="M 616.17119,253.97308 609.75349,269.40251"
         id="path16298" />
      <path
         inkscape:connector-curvature="0"
         style="fill:none;stroke:#000000;stroke-width:1.25;stroke-miterlimit:4;stroke-dasharray:none"
         d="M 657.13239,252.62723 655.44979,261.66283"
         id="path16296" />
      <path
         inkscape:connector-curvature="0"
         style="fill:none;stroke:#000000;stroke-width:1.25;stroke-miterlimit:4;stroke-dasharray:none"
         d="M 655.44979,261.66283 658.11689,264.3482"
         id="path16294" />
      <path
         inkscape:connector-curvature="0"
         style="fill:none;stroke:#000000;stroke-width:1.25;stroke-miterlimit:4;stroke-dasharray:none"
         d="M 631.39329,258.02017 641.66479,266.0149"
         id="path16292" />
      <path
         inkscape:connector-curvature="0"
         style="fill:none;stroke:#000000;stroke-width:1.25;stroke-miterlimit:4;stroke-dasharray:none"
         d="M 641.66479,266.0149 643.80249,265.95807"
         id="path16290" />
      <path
         inkscape:connector-curvature="0"
         style="fill:none;stroke:#000000;stroke-width:1.25;stroke-miterlimit:4;stroke-dasharray:none"
         d="M 643.80249,265.95807 655.44979,261.66283"
         id="path16288" />
      <path
         inkscape:connector-curvature="0"
         style="fill:none;stroke:#000000;stroke-width:1.25;stroke-miterlimit:4;stroke-dasharray:none"
         d="M 625.63499,258.78508 619.48099,272.96095"
         id="path16286" />
      <path
         inkscape:connector-curvature="0"
         style="fill:none;stroke:#000000;stroke-width:1.25;stroke-miterlimit:4;stroke-dasharray:none"
         d="M 609.75349,269.40251 611.39079,273.46349"
         id="path16284" />
      <path
         inkscape:connector-curvature="0"
         style="fill:none;stroke:#000000;stroke-width:1.25;stroke-miterlimit:4;stroke-dasharray:none"
         d="M 611.39079,273.46349 619.48099,272.96095"
         id="path16282" />
      <path
         inkscape:connector-curvature="0"
         style="fill:none;stroke:#000000;stroke-width:1.25;stroke-miterlimit:4;stroke-dasharray:none"
         d="M 643.80249,265.95807 647.29549,282.99368"
         id="path16280" />
      <path
         inkscape:connector-curvature="0"
         style="fill:none;stroke:#000000;stroke-width:1.25;stroke-miterlimit:4;stroke-dasharray:none"
         d="M 658.11689,264.3482 660.45759,282.57441"
         id="path16278" />
      <path
         inkscape:connector-curvature="0"
         style="fill:none;stroke:#000000;stroke-width:1.25;stroke-miterlimit:4;stroke-dasharray:none"
         d="M 660.45759,282.57441 660.58369,282.62355"
         id="path16276" />
      <path
         inkscape:connector-curvature="0"
         style="fill:none;stroke:#000000;stroke-width:1.25;stroke-miterlimit:4;stroke-dasharray:none"
         d="M 619.48099,272.96095 629.89149,281.04109"
         id="path16274" />
      <path
         inkscape:connector-curvature="0"
         style="fill:none;stroke:#000000;stroke-width:1.25;stroke-miterlimit:4;stroke-dasharray:none"
         d="M 641.66479,266.0149 629.89149,281.04109"
         id="path16272" />
      <path
         inkscape:connector-curvature="0"
         style="fill:none;stroke:#000000;stroke-width:1.25;stroke-miterlimit:4;stroke-dasharray:none"
         d="M 647.29549,282.99368 658.02959,284.45536"
         id="path16270" />
      <path
         inkscape:connector-curvature="0"
         style="fill:none;stroke:#000000;stroke-width:1.25;stroke-miterlimit:4;stroke-dasharray:none"
         d="M 658.02959,284.45536 660.45759,282.57441"
         id="path16268" />
      <path
         inkscape:connector-curvature="0"
         style="fill:none;stroke:#000000;stroke-width:1.25;stroke-miterlimit:4;stroke-dasharray:none"
         d="M 658.02959,284.45536 656.57539,288.64216"
         id="path16266" />
      <path
         inkscape:connector-curvature="0"
         style="fill:none;stroke:#000000;stroke-width:1.25;stroke-miterlimit:4;stroke-dasharray:none"
         d="M 629.89149,281.04109 630.19239,286.00185"
         id="path16264" />
      <path
         inkscape:connector-curvature="0"
         style="fill:none;stroke:#000000;stroke-width:1.25;stroke-miterlimit:4;stroke-dasharray:none"
         d="M 630.19239,286.00185 640.22379,289.8788"
         id="path16262" />
      <path
         inkscape:connector-curvature="0"
         style="fill:none;stroke:#000000;stroke-width:1.25;stroke-miterlimit:4;stroke-dasharray:none"
         d="M 640.22379,289.8788 647.29549,282.99368"
         id="path16260" />
      <path
         inkscape:connector-curvature="0"
         style="fill:none;stroke:#000000;stroke-width:1.25;stroke-miterlimit:4;stroke-dasharray:none"
         d="M 590.95409,261.59545 603.40459,285.2193"
         id="path16258" />
      <path
         inkscape:connector-curvature="0"
         style="fill:none;stroke:#000000;stroke-width:1.25;stroke-miterlimit:4;stroke-dasharray:none"
         d="M 611.39079,273.46349 603.40459,285.2193"
         id="path16256" />
      <path
         inkscape:connector-curvature="0"
         style="fill:none;stroke:#000000;stroke-width:1.25;stroke-miterlimit:4;stroke-dasharray:none"
         d="M 640.22379,289.8788 642.96969,293.99997"
         id="path16252" />
      <path
         inkscape:connector-curvature="0"
         style="fill:none;stroke:#000000;stroke-width:1.25;stroke-miterlimit:4;stroke-dasharray:none"
         d="M 642.96969,293.99997 645.75619,295.79106"
         id="path16250" />
      <path
         inkscape:connector-curvature="0"
         style="fill:none;stroke:#000000;stroke-width:1.25;stroke-miterlimit:4;stroke-dasharray:none"
         d="M 645.75619,295.79106 656.57539,288.64216"
         id="path16248" />
      <path
         inkscape:connector-curvature="0"
         style="fill:none;stroke:#000000;stroke-width:1.25;stroke-miterlimit:4;stroke-dasharray:none"
         d="M 642.96969,293.99997 637.57989,300.73249"
         id="path16246" />
      <path
         inkscape:connector-curvature="0"
         style="fill:none;stroke:#000000;stroke-width:1.25;stroke-miterlimit:4;stroke-dasharray:none"
         d="M 630.19239,286.00185 624.16799,292.41945"
         id="path16244" />
      <path
         inkscape:connector-curvature="0"
         style="fill:none;stroke:#000000;stroke-width:1.25;stroke-miterlimit:4;stroke-dasharray:none"
         d="M 645.75619,295.79106 648.13069,300.04369"
         id="path16238" />
      <path
         inkscape:connector-curvature="0"
         style="fill:none;stroke:#000000;stroke-width:1.25;stroke-miterlimit:4;stroke-dasharray:none"
         d="M 656.57539,288.64216 660.02389,300.13589"
         id="path16236" />
      <path
         inkscape:connector-curvature="0"
         style="fill:none;stroke:#000000;stroke-width:1.25;stroke-miterlimit:4;stroke-dasharray:none"
         d="M 660.02389,300.13589 669.70969,294.34055"
         id="path16234" />
      <path
         inkscape:connector-curvature="0"
         style="fill:none;stroke:#000000;stroke-width:1.25;stroke-miterlimit:4;stroke-dasharray:none"
         d="M 618.69739,295.30987 624.16799,292.41945"
         id="path16232" />
      <path
         inkscape:connector-curvature="0"
         style="fill:none;stroke:#000000;stroke-width:1.25;stroke-miterlimit:4;stroke-dasharray:none"
         d="M 648.13069,300.04369 659.40469,301.3467"
         id="path16230" />
      <path
         inkscape:connector-curvature="0"
         style="fill:none;stroke:#000000;stroke-width:1.25;stroke-miterlimit:4;stroke-dasharray:none"
         d="M 660.02389,300.13589 659.40469,301.3467"
         id="path16228" />
      <path
         inkscape:connector-curvature="0"
         style="fill:none;stroke:#000000;stroke-width:1.25;stroke-miterlimit:4;stroke-dasharray:none"
         d="M 659.40469,301.3467 660.18219,303.91784"
         id="path16226" />
      <path
         inkscape:connector-curvature="0"
         style="fill:none;stroke:#000000;stroke-width:1.25;stroke-miterlimit:4;stroke-dasharray:none"
         d="M 603.40459,285.2193 601.42399,292.73422"
         id="path16224" />
      <path
         inkscape:connector-curvature="0"
         style="fill:none;stroke:#000000;stroke-width:1.25;stroke-miterlimit:4;stroke-dasharray:none"
         d="M 601.42399,292.73422 618.69739,295.30987"
         id="path16222" />
      <path
         inkscape:connector-curvature="0"
         style="fill:none;stroke:#000000;stroke-width:1.25;stroke-miterlimit:4;stroke-dasharray:none"
         d="M 618.69739,295.30987 622.17859,307.84902"
         id="path16220" />
      <path
         inkscape:connector-curvature="0"
         style="fill:none;stroke:#000000;stroke-width:1.25;stroke-miterlimit:4;stroke-dasharray:none"
         d="M 660.18219,303.91784 654.65169,311.09477"
         id="path16218" />
      <path
         inkscape:connector-curvature="0"
         style="fill:none;stroke:#000000;stroke-width:1.25;stroke-miterlimit:4;stroke-dasharray:none"
         d="M 612.36679,312.04327 622.17859,307.84902"
         id="path16216" />
      <path
         inkscape:connector-curvature="0"
         style="fill:none;stroke:#000000;stroke-width:1.25;stroke-miterlimit:4;stroke-dasharray:none"
         d="M 660.58369,282.62355 672.20669,280.9635"
         id="path16212" />
      <path
         inkscape:connector-curvature="0"
         style="fill:none;stroke:#000000;stroke-width:1.25;stroke-miterlimit:4;stroke-dasharray:none"
         d="M 658.11689,264.3482 672.20669,267.2352"
         id="path16208" />
      <path
         inkscape:connector-curvature="0"
         style="fill:none;stroke:#000000;stroke-width:1.25;stroke-miterlimit:4;stroke-dasharray:none"
         d="M 648.13069,300.04369 643.97429,313.42068"
         id="path16206" />
      <path
         inkscape:connector-curvature="0"
         style="fill:none;stroke:#000000;stroke-width:1.25;stroke-miterlimit:4;stroke-dasharray:none"
         d="M 643.97429,313.42068 654.65169,311.09477"
         id="path16204" />
      <path
         inkscape:connector-curvature="0"
         style="fill:none;stroke:#000000;stroke-width:1.25;stroke-miterlimit:4;stroke-dasharray:none"
         d="M 637.57989,300.73249 640.72539,316.83973"
         id="path16202" />
      <path
         inkscape:connector-curvature="0"
         style="fill:none;stroke:#000000;stroke-width:1.25;stroke-miterlimit:4;stroke-dasharray:none"
         d="M 643.97429,313.42068 640.72539,316.83973"
         id="path16200" />
      <path
         inkscape:connector-curvature="0"
         style="fill:none;stroke:#000000;stroke-width:1.25;stroke-miterlimit:4;stroke-dasharray:none"
         d="M 586.00639,302.77756 601.42399,292.73422"
         id="path16198" />
      <path
         inkscape:connector-curvature="0"
         style="fill:none;stroke:#000000;stroke-width:1.25;stroke-miterlimit:4;stroke-dasharray:none"
         d="M 586.00639,302.77756 612.36679,312.04327"
         id="path16196" />
      <path
         inkscape:connector-curvature="0"
         style="fill:none;stroke:#000000;stroke-width:1.25;stroke-miterlimit:4;stroke-dasharray:none"
         d="M 622.17859,307.84902 630.40619,318.36183"
         id="path16192" />
      <path
         inkscape:connector-curvature="0"
         style="fill:none;stroke:#000000;stroke-width:1.25;stroke-miterlimit:4;stroke-dasharray:none"
         d="M 640.72539,316.83973 639.74799,318.36078"
         id="path16182" />
      <path
         inkscape:connector-curvature="0"
         style="fill:none;stroke:#000000;stroke-width:1.25;stroke-miterlimit:4;stroke-dasharray:none"
         d="M 657.13239,252.62723 672.20639,242.52161"
         id="path16178" />
      <path
         inkscape:connector-curvature="0"
         style="fill:none;stroke:#000000;stroke-width:1.25;stroke-miterlimit:4;stroke-dasharray:none"
         d="M 612.36679,312.04327 615.20869,318.36167"
         id="path16174" />
      <path
         inkscape:connector-curvature="0"
         style="fill:none;stroke:#000000;stroke-width:1.25;stroke-miterlimit:4;stroke-dasharray:none"
         d="M 585.20789,262.06598 590.95409,261.59545"
         id="path16168" />
      <path
         inkscape:connector-curvature="0"
         style="fill:none;stroke:#000000;stroke-width:1.25;stroke-miterlimit:4;stroke-dasharray:none"
         d="M 669.70969,294.34055 672.20759,294.71583"
         id="path16162" />
      <path
         inkscape:connector-curvature="0"
         style="fill:none;stroke:#000000;stroke-width:1.25;stroke-miterlimit:4;stroke-dasharray:none"
         d="M 660.18219,303.91784 672.20739,313.67378"
         id="path16154" />
      <path
         inkscape:connector-curvature="0"
         style="fill:none;stroke:#000000;stroke-width:1.25;stroke-miterlimit:4;stroke-dasharray:none"
         d="M 654.65169,311.09477 661.69269,318.36053"
         id="path16150" />
    </g>
  </g>
  <g
     id="g8116"
     transform="translate(-227.6995,-216.36183)">
    <rect
       rx="1"
       y="218.46318"
       x="232.14496"
       height="125.65445"
       width="125.65446"
       id="rect7286"
       style="opacity:1;fill:none;fill-opacity:1;stroke:#000000;stroke-width:1.25;stroke-linecap:butt;stroke-linejoin:round;stroke-miterlimit:4;stroke-dasharray:none;stroke-dashoffset:0;stroke-opacity:1" />
    <path
       style="fill:none;fill-rule:evenodd;stroke:#000000;stroke-width:1.25;stroke-linecap:butt;stroke-linejoin:miter;stroke-miterlimit:4;stroke-dasharray:none;stroke-opacity:1"
       d="M 252.01996,247.74262 252.01996,318.24263 341.01996,318.24263"
       id="path7298"
       inkscape:connector-curvature="0"
       sodipodi:nodetypes="ccc" />
    <path
       sodipodi:nodetypes="csssccsssccsssccsssccsssccsssccsssccsssc"
       inkscape:connector-curvature="0"
       id="path7306"
       d="M 340.15037,311.58986 C 340.15037,311.58986 331.88958,311.77836 329.78641,311.50147 329.079,311.40834 328.28487,311.38182 327.7188,310.94746 327.40409,310.70597 327.15698,310.31212 327.12377,309.91683 L 326.25088,299.52569 325.65211,299.52569 324.77922,309.91683 C 324.74601,310.31212 324.4989,310.70597 324.18419,310.94746 323.61812,311.38182 322.82399,311.40834 322.11658,311.50147 320.01341,311.77836 315.75262,311.58986 315.75262,311.58986 L 315.15037,311.58986 C 315.15037,311.58986 314.88958,311.77836 312.78641,311.50147 312.079,311.40834 311.28487,311.38182 310.7188,310.94746 310.40409,310.70597 310.14258,310.31307 310.12377,309.91683 L 309.25088,291.52569 308.65211,291.52569 307.77922,309.91683 C 307.76041,310.31307 307.4989,310.70597 307.18419,310.94746 306.61812,311.38182 305.82399,311.40834 305.11658,311.50147 303.01341,311.77836 298.75262,311.58986 298.75262,311.58986 L 297.72396,311.58986 C 297.72396,311.58986 295.46317,311.77836 293.36,311.50147 292.65259,311.40834 291.85846,311.38182 291.29239,310.94746 290.97768,310.70597 290.71908,310.31292 290.69736,309.91683 L 287.82447,257.52569 287.2257,257.52569 284.35281,309.91683 C 284.33109,310.31292 284.07249,310.70597 283.75778,310.94746 283.19171,311.38182 282.39758,311.49673 281.69017,311.58986 279.587,311.86675 277.32621,311.58986 277.32621,311.58986 L 276.72396,311.58986 C 276.72396,311.58986 272.46317,311.77836 270.36,311.50147 269.65259,311.40834 268.85846,311.38182 268.29239,310.94746 267.97768,310.70597 267.71617,310.31307 267.69736,309.91683 L 266.82447,291.52569 266.2257,291.52569 265.35281,309.91683 C 265.334,310.31307 265.07249,310.70597 264.75778,310.94746 264.19171,311.38182 263.39758,311.40834 262.69017,311.50147 260.587,311.77836 256.32621,311.58986 256.32621,311.58986"
       style="fill:none;fill-rule:evenodd;stroke:#000000;stroke-width:1.25;stroke-linecap:butt;stroke-linejoin:miter;stroke-miterlimit:4;stroke-dasharray:none;stroke-opacity:1" />
  </g>
</svg>
