<svg xmlns:osb="http://www.openswatchbook.org/uri/2009/osb" xmlns="http://www.w3.org/2000/svg" xmlns:xlink="http://www.w3.org/1999/xlink" viewBox="0 0 64 64.000001" height="64" width="64"><defs><linearGradient osb:paint="solid"><stop offset="0"/></linearGradient><linearGradient osb:paint="solid"><stop offset="0"/></linearGradient><linearGradient osb:paint="solid"><stop offset="0"/></linearGradient><linearGradient osb:paint="solid"><stop offset="0" stop-color="#a6a6a6"/></linearGradient><linearGradient osb:paint="solid"><stop offset="0" stop-color="#a6a6a6"/></linearGradient><linearGradient osb:paint="solid"><stop offset="0"/></linearGradient><linearGradient osb:paint="solid"><stop offset="0" stop-color="#545861"/></linearGradient><linearGradient gradientTransform="matrix(3.25 0 0 3.25 -7.247 -2362.154)" id="a" osb:paint="solid"><stop offset="0" stop-color="#fff"/></linearGradient><linearGradient osb:paint="solid" gradientTransform="translate(23.199 116.862)"><stop offset="0"/></linearGradient><linearGradient><stop offset="0" stop-color="#3b0b55"/></linearGradient><linearGradient><stop offset="0" stop-color="#ffd358"/></linearGradient><linearGradient><stop offset="0" stop-color="#dcfbb6"/></linearGradient><linearGradient><stop offset="0" stop-color="#f0d5ff"/></linearGradient><linearGradient gradientTransform="matrix(1.678 0 0 1.549 -45.356 107.365)" id="f" osb:paint="solid"><stop offset="0" stop-color="#ffd358"/></linearGradient><linearGradient gradientTransform="matrix(.905 0 0 .614 4.021 84.494)" id="e" osb:paint="solid"><stop offset="0" stop-color="#dcfbb6"/></linearGradient><linearGradient gradientTransform="matrix(0 -.379 .379 0 64.626 498.171)" id="c" osb:paint="solid"><stop offset="0" stop-color="#3b0b55"/></linearGradient><linearGradient gradientTransform="matrix(-.768 0 0 .768 45.174 198.663)" id="d" osb:paint="solid"><stop offset="0" stop-color="#f0d5ff"/></linearGradient><marker orient="auto" overflow="visible"><path d="M-1.2 0l-1 1 3.5-1-3.5-1 1 1z" fill="#fff" fill-rule="evenodd" stroke="#fff" stroke-width="NaN"/></marker><clipPath><path d="M72.8 31.5h434v342.3h-434z"/></clipPath><path d="M3.9 2.916c0-.036 0-.06-.204-.264-1.2-1.212-1.872-3.192-1.872-5.64 0-2.328.564-4.332 1.956-5.748.12-.108.12-.132.12-.168C3.9-8.976 3.84-9 3.792-9c-.156 0-1.14.864-1.728 2.04-.612 1.212-.888 2.496-.888 3.972 0 1.068.168 2.496.792 3.78.708 1.44 1.692 2.22 1.824 2.22.048 0 .108-.024.108-.096zM3.384-2.988c0-.912-.12-2.4-.792-3.792C1.884-8.22.9-9 .768-9 .72-9 .66-8.976.66-8.904c0 .036 0 .06.204.264C2.064-7.428 2.736-5.448 2.736-3c0 2.328-.564 4.332-1.956 5.748-.12.108-.12.132-.12.168 0 .072.06.096.108.096.156 0 1.14-.864 1.728-2.04.612-1.224.888-2.52.888-3.96zM4.788-2.772H8.1c.168 0 .384 0 .384-.216 0-.228-.204-.228-.384-.228H4.788v-3.312c0-.168 0-.384-.216-.384-.228 0-.228.204-.228.384v3.312H1.032c-.168 0-.384 0-.384.216 0 .228.204.228.384.228h3.312V.54c0 .168 0 .384.216.384.228 0 .228-.204.228-.384v-3.312zM8.1-3.888c.168 0 .384 0 .384-.216 0-.228-.204-.228-.384-.228H1.032c-.168 0-.384 0-.384.216 0 .228.204.228.384.228H8.1zm0 2.232c.168 0 .384 0 .384-.216 0-.228-.204-.228-.384-.228H1.032c-.168 0-.384 0-.384.216 0 .228.204.228.384.228H8.1zM2.208-7.392c0-.36-.288-.588-.576-.588-.336 0-.588.264-.588.588 0 .312.264.576.576.576.36 0 .588-.288.588-.576zM2.64-5.172c0-.048-.036-.12-.132-.12-.084 0-1.212.108-1.392.12-.132.012-.252.024-.252.24 0 .12.096.12.264.12.564 0 .6.084.6.216 0 .048-.024.192-.036.24L.636-.12c0 .048.036.12.12.12h.252C1.176 0 3-.432 4.404-1.872c1.548-1.596 1.764-3.072 1.764-3.12 0-.192-.156-.3-.312-.3-.348 0-.432.324-.456.408C4.692-2.376 3.048-.888 1.452-.36L2.64-5.172zM3.132.06l-1.26-.504C1.56-.564.84-.852.84-1.572c0-1.032 1.26-2.076 1.512-2.076.024 0 .132.024.168.036.324.096.636.096.852.096.372 0 1.08 0 1.08-.348 0-.264-.432-.3-.948-.3-.24 0-.564 0-.996.144-.288-.24-.408-.624-.408-.984 0-.66.432-1.596 1.38-2.04.216.252.504.252.756.252.3 0 1.032 0 1.032-.348 0-.3-.576-.3-.96-.3-.24 0-.42 0-.756.06-.06-.144-.072-.168-.072-.432 0-.216.048-.384.048-.42 0-.072-.06-.12-.12-.12-.192 0-.192.444-.192.54 0 .168.012.336.084.492-1.44.42-2.076 1.44-2.076 2.22 0 .72.48 1.116.804 1.296C.792-3.132.264-1.908.264-1.26c0 1.044.948 1.416 1.38 1.596l1.08.432c.3.108.792.312.876.36.12.084.216.228.216.42 0 .252-.192.66-.612.66-.18 0-.576-.048-1.008-.372-.084-.072-.096-.084-.144-.084-.06 0-.12.048-.12.12 0 .132.624.576 1.272.576.768 0 1.236-.744 1.236-1.26 0-.372-.204-.672-.588-.84L3.132.06zm.612-7.2c.204-.06.42-.06.576-.06.396 0 .432.012.672.072-.144.06-.24.096-.744.096-.228 0-.372 0-.504-.108zm-.948 3.288c.288-.072.552-.072.696-.072.396 0 .42.012.684.072-.132.06-.24.096-.756.096-.288 0-.408 0-.624-.096zM2.34.048c0-.696-.228-1.212-.72-1.212-.384 0-.576.312-.576.576 0 .264.18.588.588.588.156 0 .288-.048.396-.156.024-.024.036-.024.048-.024.024 0 .024.168.024.228 0 .396-.072 1.176-.768 1.956-.132.144-.132.168-.132.192 0 .06.06.12.12.12.096 0 1.02-.888 1.02-2.268zM10.896-7.32c.108-.408.132-.528.984-.528.228 0 .336 0 .336-.228 0-.12-.084-.12-.312-.12h-1.44c-.3 0-.312.012-.444.204L5.64-1.068l-.9-6.864c-.036-.264-.048-.264-.36-.264H2.892c-.228 0-.336 0-.336.228 0 .12.108.12.288.12.732 0 .732.096.732.228 0 .024 0 .096-.048.276l-1.536 6.12c-.144.576-.42.84-1.224.876-.036 0-.18.012-.18.216C.588 0 .696 0 .744 0c.24 0 .852-.024 1.092-.024h.576c.168 0 .372.024.54.024.084 0 .216 0 .216-.228 0-.108-.12-.12-.168-.12-.396-.012-.78-.084-.78-.516 0-.12 0-.132.048-.3l1.656-6.612h.012l.996 7.452c.036.288.048.324.156.324.132 0 .192-.096.252-.204l4.824-7.632h.012L8.436-.888c-.108.42-.132.54-.972.54-.228 0-.348 0-.348.216 0 .132.108.132.18.132.204 0 .444-.024.648-.024H9.36c.204 0 .456.024.66.024.096 0 .228 0 .228-.228 0-.12-.108-.12-.288-.12-.732 0-.732-.096-.732-.216 0-.012 0-.096.024-.192l1.644-6.564zM5.352-4.824c.24 0 .336 0 .336-.228 0-.12-.096-.12-.312-.12h-.972c.228-1.236.396-2.088.492-2.472.072-.288.324-.564.636-.564.252 0 .504.108.624.216-.468.048-.612.396-.612.6 0 .24.18.384.408.384.24 0 .6-.204.6-.66 0-.504-.504-.78-1.032-.78-.516 0-1.02.384-1.26.852-.216.42-.336.852-.612 2.424h-.804c-.228 0-.348 0-.348.216 0 .132.072.132.312.132h.768C3.36-3.708 2.868-.996 2.592.288c-.204 1.044-.384 1.92-.984 1.92-.036 0-.384 0-.6-.228.612-.048.612-.576.612-.588 0-.24-.18-.384-.408-.384-.24 0-.6.204-.6.66 0 .516.528.78.996.78 1.224 0 1.728-2.196 1.86-2.796.216-.924.804-4.116.864-4.476h1.02zM2.412-4.824h1.104c.228 0 .348 0 .348-.216 0-.132-.072-.132-.312-.132H2.496l.444-1.752c.048-.168.048-.192.048-.276 0-.192-.156-.3-.312-.3-.096 0-.372.036-.468.42L1.74-5.172H.612c-.24 0-.348 0-.348.228 0 .12.084.12.312.12h1.068L.852-1.656c-.096.42-.132.54-.132.696 0 .564.396 1.08 1.068 1.08 1.212 0 1.86-1.752 1.86-1.836 0-.072-.048-.108-.12-.108-.024 0-.072 0-.096.048-.012.012-.024.024-.108.216-.252.6-.804 1.44-1.5 1.44-.36 0-.384-.3-.384-.564 0-.012 0-.24.036-.384l.936-3.756zM5.688-4.896c-.384.072-.528.36-.528.588 0 .288.228.384.396.384.36 0 .612-.312.612-.636 0-.504-.576-.732-1.08-.732-.732 0-1.14.72-1.248.948-.276-.9-1.02-.948-1.236-.948C1.38-5.292.732-3.72.732-3.456c0 .048.048.108.132.108.096 0 .12-.072.144-.12.408-1.332 1.212-1.584 1.56-1.584.54 0 .648.504.648.792 0 .264-.072.54-.216 1.116L2.592-1.5c-.18.72-.528 1.38-1.164 1.38-.06 0-.36 0-.612-.156.432-.084.528-.444.528-.588 0-.24-.18-.384-.408-.384-.288 0-.6.252-.6.636 0 .504.564.732 1.08.732.576 0 .984-.456 1.236-.948.192.708.792.948 1.236.948C5.112.12 5.76-1.452 5.76-1.716c0-.06-.048-.108-.12-.108-.108 0-.12.06-.156.156C5.16-.612 4.464-.12 3.924-.12c-.42 0-.648-.312-.648-.804 0-.264.048-.456.24-1.248l.42-1.632c.18-.72.588-1.248 1.14-1.248.024 0 .36 0 .612.156zM1.768-3.184h.784c.152 0 .248 0 .248-.152 0-.112-.104-.112-.24-.112h-.728l.288-1.136c.032-.12.032-.16.032-.168 0-.168-.128-.248-.264-.248-.272 0-.328.216-.416.576l-.248.976H.456c-.152 0-.256 0-.256.152 0 .112.104.112.24.112h.72l-.48 1.92c-.048.2-.12.48-.12.592 0 .48.392.752.816.752.856 0 1.344-1.128 1.344-1.224 0-.088-.072-.104-.12-.104-.088 0-.096.032-.152.152-.16.384-.56.952-1.048.952-.168 0-.264-.112-.264-.376 0-.152.024-.24.048-.344l.584-2.32zM3-.872c-.04.152-.416.728-.952.728-.392 0-.528-.288-.528-.648 0-.472.28-1.192.456-1.64.08-.2.104-.272.104-.416 0-.44-.352-.68-.72-.68C.568-3.528.24-2.4.24-2.304c0 .072.056.104.12.104.104 0 .112-.048.136-.128.208-.712.56-.976.84-.976.12 0 .192.08.192.264s-.072.368-.176.648C1.016-1.544.944-1.2.944-.912c0 .784.592.992 1.064.992.6 0 .968-.48 1-.52.128.376.488.52.776.52.376 0 .56-.32.616-.44.16-.288.272-.752.272-.784 0-.048-.032-.104-.128-.104s-.112.04-.16.248c-.104.4-.248.856-.576.856-.184 0-.256-.152-.256-.376 0-.136.072-.408.12-.608s.168-.68.2-.824l.16-.608c.048-.216.144-.592.144-.64 0-.2-.16-.248-.256-.248-.112 0-.288.072-.344.264L3-.872zM3.36-2.384c0-.784-.76-1.184-1.488-1.184-.664 0-1.256.256-1.256.784 0 .24.168.384.376.384.224 0 .376-.16.376-.376 0-.192-.12-.328-.296-.368.296-.2.728-.2.784-.2.448 0 .896.312.896.968v.248c-.464.024-1 .048-1.56.28-.704.304-.84.768-.84 1.032 0 .688.808.896 1.36.896.584 0 .944-.328 1.12-.648.04.304.248.608.6.608.08 0 .76-.032.76-.76v-.44h-.248v.44c0 .328-.12.456-.288.456-.296 0-.296-.368-.296-.456v-1.664zm-.608 1.256c0 .776-.656.984-.976.984-.416 0-.768-.28-.768-.664 0-.528.496-1.072 1.744-1.112v.792zM3.888-2.424c0-.672-.304-1.104-1.144-1.104-.792 0-1.152.576-1.248.768h-.008v-.768l-1.16.088v.264c.544 0 .608.056.608.448v2.104c0 .36-.096.36-.608.36V0c.344-.024.696-.024.912-.024.232 0 .568 0 .912.024v-.264c-.512 0-.608 0-.608-.36v-1.448c0-.84.64-1.232 1.128-1.232.488 0 .608.344.608.848v1.832c0 .36-.096.36-.608.36V0c.344-.024.696-.024.912-.024.232 0 .568 0 .912.024v-.264c-.512 0-.608 0-.608-.36v-1.8zM1.472-1.824c0-.6.248-1.464 1.016-1.48-.048.032-.128.096-.128.28 0 .248.192.36.352.36.192 0 .36-.128.36-.36 0-.28-.256-.504-.608-.504-.52 0-.872.392-1.04.84h-.008v-.84L.28-3.44v.264c.544 0 .608.056.608.448v2.104c0 .36-.096.36-.608.36V0c.312-.024.752-.024.944-.024.472 0 .488 0 1.008.024v-.264h-.16c-.584 0-.6-.088-.6-.376v-1.184zM2.848-3.36c0-.128 0-.208-.104-.208-.04 0-.064 0-.192.128-.016.008-.088.08-.112.08-.008 0-.024 0-.072-.032-.128-.088-.36-.176-.72-.176-1.12 0-1.368.608-1.368.992 0 .4.296.632.32.656.32.24.504.272 1.04.368.376.072.992.184.992.728 0 .312-.208.68-.944.68C.88-.144.648-.768.544-1.192c-.032-.104-.04-.144-.136-.144-.128 0-.128.064-.128.216v.992C.28 0 .28.08.384.08c.048 0 .056-.008.2-.16.04-.04.128-.144.168-.184.36.328.736.344.944.344 1.016 0 1.368-.584 1.368-1.112 0-.384-.232-.944-1.184-1.12-.064-.016-.512-.096-.544-.096-.248-.056-.624-.224-.624-.544 0-.24.176-.576.936-.576.896 0 .936.656.952.88.008.064.064.088.12.088.128 0 .128-.056.128-.208v-.752zM1.488-3.184H2.68v-.264H1.488V-4.92H1.24C1.232-4.192.904-3.432.16-3.408v.224h.72V-1C.88-.064 1.6.08 1.968.08c.536 0 .856-.48.856-1.08v-.448h-.248v.432c0 .552-.248.848-.552.848-.536 0-.536-.688-.536-.816v-2.2z"/><clipPath><path stroke="#991cdf" stroke-width="5" stroke-opacity=".855" d="M363.705 556.79l48.454-32.493 44.555 66.443-48.454 32.494z" fill="none"/></clipPath><clipPath><path stroke="#991cdf" stroke-width="5" stroke-opacity=".855" d="M244.508 587.496h58.34v80h-58.34z" fill="none"/></clipPath><clipPath><path stroke="#991cdf" stroke-width="5" stroke-opacity=".855" d="M313.026 587.496h58.34v80h-58.34z" fill="none"/></clipPath><path d="M3.9 2.916c0-.036 0-.06-.204-.264-1.2-1.212-1.872-3.192-1.872-5.64 0-2.328.564-4.332 1.956-5.748.12-.108.12-.132.12-.168C3.9-8.976 3.84-9 3.792-9c-.156 0-1.14.864-1.728 2.04-.612 1.212-.888 2.496-.888 3.972 0 1.068.168 2.496.792 3.78.708 1.44 1.692 2.22 1.824 2.22.048 0 .108-.024.108-.096zM3.384-2.988c0-.912-.12-2.4-.792-3.792C1.884-8.22.9-9 .768-9 .72-9 .66-8.976.66-8.904c0 .036 0 .06.204.264C2.064-7.428 2.736-5.448 2.736-3c0 2.328-.564 4.332-1.956 5.748-.12.108-.12.132-.12.168 0 .072.06.096.108.096.156 0 1.14-.864 1.728-2.04.612-1.224.888-2.52.888-3.96zM2.208-4.596c0-.324-.276-.576-.576-.576-.348 0-.588.276-.588.576 0 .36.3.588.576.588.324 0 .588-.252.588-.588zM2.004-.12c0 .42 0 1.272-.732 2.172-.072.096-.072.12-.072.144 0 .06.06.12.12.12.084 0 .924-.888.924-2.292 0-.444-.036-1.188-.624-1.188-.348 0-.576.264-.576.576 0 .324.228.588.588.588.228 0 .312-.072.372-.12zM8.1-3.888c.168 0 .384 0 .384-.216 0-.228-.204-.228-.384-.228H1.032c-.168 0-.384 0-.384.216 0 .228.204.228.384.228H8.1zm0 2.232c.168 0 .384 0 .384-.216 0-.228-.204-.228-.384-.228H1.032c-.168 0-.384 0-.384.216 0 .228.204.228.384.228H8.1zM2.208-7.392c0-.36-.288-.588-.576-.588-.336 0-.588.264-.588.588 0 .312.264.576.576.576.36 0 .588-.288.588-.576zM1.428-2.172c.564.372 1.044.372 1.176.372 1.08 0 1.884-.816 1.884-1.74 0-.324-.096-.78-.48-1.164.468-.48 1.032-.48 1.092-.48.048 0 .108 0 .156.024-.12.048-.18.168-.18.3 0 .168.12.312.312.312.096 0 .312-.06.312-.324 0-.216-.168-.552-.588-.552-.624 0-1.092.384-1.26.564-.36-.276-.78-.432-1.236-.432-1.08 0-1.884.816-1.884 1.74 0 .684.42 1.128.54 1.236-.144.18-.36.528-.36.996 0 .696.42.996.516 1.056C.876-.108.324.324.324.948c0 .828 1.128 1.512 2.604 1.512 1.428 0 2.616-.636 2.616-1.536 0-.3-.084-1.008-.804-1.38-.612-.312-1.212-.312-2.244-.312-.732 0-.816 0-1.032-.228-.12-.12-.228-.348-.228-.6 0-.204.072-.408.192-.576zm1.188.12C1.56-2.052 1.56-3.264 1.56-3.54c0-.216 0-.708.204-1.032.228-.348.588-.468.84-.468 1.056 0 1.056 1.212 1.056 1.488 0 .216 0 .708-.204 1.032-.228.348-.588.468-.84.468zm.324 4.26C1.788 2.208.912 1.62.912.936c0-.096.024-.564.48-.876.264-.168.372-.168 1.212-.168.996 0 2.352 0 2.352 1.044 0 .708-.912 1.272-2.016 1.272zM2.088-7.392c0-.312-.252-.588-.588-.588-.312 0-.576.252-.576.576 0 .36.288.588.576.588.372 0 .588-.312.588-.576zM.432-5.16v.348c.768 0 .876.072.876.66v3.264c0 .54-.132.54-.912.54V0c.336-.024.912-.024 1.26-.024.132 0 .828 0 1.236.024v-.348c-.78 0-.828-.06-.828-.528v-4.416L.432-5.16zM5.34-2.916c0-1.116 0-1.452-.276-1.836-.348-.468-.912-.54-1.32-.54-1.164 0-1.62.996-1.716 1.236h-.012v-1.236L.384-5.16v.348c.816 0 .912.084.912.672v3.252c0 .54-.132.54-.912.54V0c.312-.024.96-.024 1.296-.024.348 0 .996 0 1.308.024v-.348c-.768 0-.912 0-.912-.54V-3.12c0-1.26.828-1.932 1.572-1.932.744 0 .912.612.912 1.344v2.82c0 .54-.132.54-.912.54V0c.312-.024.96-.024 1.296-.024.348 0 .996 0 1.308.024v-.348c-.6 0-.9 0-.912-.36v-2.208zM3.936-5.076c0-.216 0-.276-.12-.276-.096 0-.324.264-.408.372-.372-.3-.744-.372-1.128-.372C.828-5.352.396-4.56.396-3.9c0 .132 0 .552.456.972.384.336.792.42 1.344.528.66.132.816.168 1.116.408.216.18.372.444.372.78 0 .516-.3 1.092-1.356 1.092C1.536-.12.96-.576.696-1.776c-.048-.216-.048-.228-.06-.24-.024-.048-.072-.048-.108-.048-.132 0-.132.06-.132.276v1.632c0 .216 0 .276.12.276.06 0 .072-.012.276-.264.06-.084.06-.108.24-.3C1.488.12 2.136.12 2.34.12c1.26 0 1.884-.696 1.884-1.644 0-.648-.396-1.032-.504-1.14-.432-.372-.756-.444-1.548-.588-.36-.072-1.236-.24-1.236-.96 0-.372.252-.924 1.332-.924 1.308 0 1.38 1.116 1.404 1.488.012.096.096.096.132.096.132 0 .132-.06.132-.276v-1.248zM4.536-1.464c-.024-.588-.048-1.512-.504-2.592-.24-.6-.648-1.236-1.524-1.236-1.476 0-2.28 1.884-2.28 2.196 0 .108.084.108.12.108.108 0 .108-.024.168-.18C.768-3.912 1.536-4.5 2.364-4.5c1.668 0 1.908 1.86 1.908 3.048 0 .756-.084 1.008-.156 1.248-.228.744-.624 2.232-.624 2.568 0 .096.036.204.132.204.18 0 .288-.396.42-.876.288-1.056.36-1.584.42-2.064.036-.288.72-2.268 1.668-4.152.084-.192.252-.516.252-.552 0-.012-.012-.096-.12-.096-.024 0-.084 0-.108.048-.024.024-.444.84-.804 1.656-.18.408-.42.948-.816 2.004zM3.444-4.524h1.992c.156 0 .552 0 .552-.384 0-.264-.228-.264-.444-.264h-3.3c-.276 0-.684 0-1.236.588-.312.348-.696.984-.696 1.056 0 .072.06.096.132.096.084 0 .096-.036.156-.108.624-.984 1.248-.984 1.548-.984h.996L1.896-.408c-.06.18-.06.204-.06.24 0 .132.084.3.324.3.372 0 .432-.324.468-.504l.816-4.152zM4.056-1.524c-.048.192-.072.24-.228.42-.492.636-.996.864-1.368.864-.396 0-.768-.312-.768-1.14 0-.636.36-1.98.624-2.52.348-.672.888-1.152 1.392-1.152.792 0 .948.984.948 1.056l-.036.168-.564 2.304zM4.8-4.5c-.156-.348-.492-.792-1.092-.792C2.4-5.292.912-3.648.912-1.86.912-.612 1.668 0 2.436 0c.636 0 1.2-.504 1.416-.744L3.588.336c-.168.66-.24.96-.672 1.38-.492.492-.948.492-1.212.492-.36 0-.66-.024-.96-.12.384-.108.48-.444.48-.576 0-.192-.144-.384-.408-.384-.288 0-.6.24-.6.636 0 .492.492.684 1.512.684 1.548 0 2.352-.996 2.508-1.644l1.332-5.376c.036-.144.036-.168.036-.192 0-.168-.132-.3-.312-.3-.288 0-.456.24-.492.564zM3.224-3.008c-.184.032-.352.176-.352.376 0 .144.096.248.272.248.12 0 .368-.088.368-.448 0-.496-.52-.696-1.016-.696-1.072 0-1.408.76-1.408 1.168 0 .08 0 .368.296.592.184.144.32.168.736.248.28.056.736.136.736.552 0 .208-.152.472-.376.624-.296.192-.688.2-.816.2-.192 0-.736-.032-.936-.352.408-.016.464-.344.464-.44 0-.24-.216-.296-.312-.296-.128 0-.456.096-.456.536 0 .472.496.776 1.24.776 1.392 0 1.688-.984 1.688-1.32 0-.72-.784-.872-1.08-.928-.384-.072-.696-.128-.696-.464 0-.144.136-.672.912-.672.304 0 .616.088.736.296zM3.912-2.552c0-.856-.088-1.376-.352-1.888-.352-.704-1-.88-1.44-.88-1.008 0-1.376.752-1.488.976C.344-3.76.328-2.968.328-2.552c0 .528.024 1.336.408 1.976.368.592.96.744 1.384.744.384 0 1.072-.12 1.472-.912.296-.576.32-1.288.32-1.808zM2.12-.056c-.272 0-.824-.128-.992-.968-.088-.456-.088-1.208-.088-1.624 0-.552 0-1.112.088-1.552.168-.816.792-.896.992-.896.272 0 .824.136.984.864.096.44.096 1.04.096 1.584 0 .472 0 1.192-.096 1.64-.168.84-.72.952-.984.952zM8.4 28.188c0-.048-.024-.072-.048-.108-.444-.444-1.248-1.248-2.052-2.544C4.368 22.44 3.492 18.54 3.492 13.92c0-3.228.432-7.392 2.412-10.968.948-1.704 1.932-2.688 2.46-3.216C8.4-.3 8.4-.324 8.4-.36c0-.12-.084-.12-.252-.12-.168 0-.192 0-.372.18-4.02 3.66-5.28 9.156-5.28 14.208 0 4.716 1.08 9.468 4.128 13.056.24.276.696.768 1.188 1.2.144.144.168.144.336.144s.252 0 .252-.12zM6.324 13.92c0-4.716-1.08-9.468-4.128-13.056-.24-.276-.696-.768-1.188-1.2C.864-.48.84-.48.672-.48c-.144 0-.252 0-.252.12 0 .048.048.096.072.12C.912.192 1.716.996 2.52 2.292c1.932 3.096 2.808 6.996 2.808 11.616 0 3.228-.432 7.392-2.412 10.968-.948 1.704-1.944 2.7-2.448 3.204-.024.036-.048.072-.048.108 0 .12.108.12.252.12.168 0 .192 0 .372-.18 4.02-3.66 5.28-9.156 5.28-14.208zM2.154-3.81c0-.18-.024-.18-.204-.18-.396.384-1.008.384-1.224.384v.234c.156 0 .552 0 .912-.168v3.03c0 .198 0 .276-.618.276H.762V0c.33-.024.798-.024 1.134-.024.336 0 .804 0 1.134.024v-.234h-.258c-.618 0-.618-.078-.618-.276v-3.3zM2.838-.516c-.03.126-.084.336-.084.378 0 .132.102.198.21.198s.21-.072.258-.162c.012-.036.066-.246.096-.366l.132-.54c.042-.156.066-.264.102-.402.054-.204.264-.522.486-.744.12-.114.378-.294.702-.294.384 0 .384.306.384.42 0 .354-.258.996-.366 1.266-.036.102-.078.198-.078.3 0 .306.276.522.606.522.606 0 .906-.792.906-.924 0-.012-.006-.084-.114-.084-.084 0-.09.03-.126.144-.108.348-.366.666-.642.666-.084 0-.168-.036-.168-.216 0-.12.042-.228.096-.354.066-.168.36-.894.36-1.242 0-.492-.372-.696-.828-.696-.33 0-.726.12-1.116.63-.036-.444-.39-.63-.828-.63-.3 0-.684.096-1.068.57-.03-.456-.45-.57-.678-.57-.228 0-.384.138-.492.33-.156.252-.222.57-.222.588 0 .066.054.09.108.09.096 0 .102-.042.132-.138.12-.474.264-.672.456-.672.204 0 .216.21.216.306s-.06.336-.102.504c-.042.162-.102.408-.132.54-.042.15-.078.306-.12.456C.882-.474.81-.174.81-.138c0 .132.102.198.21.198s.21-.072.258-.162c.012-.036.066-.246.096-.366l.132-.54c.042-.156.066-.264.102-.402.054-.204.264-.522.486-.744.12-.114.378-.294.702-.294.384 0 .384.306.384.42 0 .144-.06.384-.108.576l-.234.936z"/><clipPath><path stroke="#8935b8" stroke-width="5" d="M320.32 872.757h60.81v91.924h-60.81z" fill="none"/></clipPath><clipPath><path stroke="#8935b8" stroke-width="5" d="M710.996 872.757h60.81v91.924h-60.81z" fill="none"/></clipPath><clipPath><path stroke="#8935b8" stroke-width="5" d="M712.057 870.636h60.81v91.924h-60.81z" fill="none"/></clipPath><clipPath><path d="M483.272 764.246v-6.43l-34.545-9.485v-74h-49.482v74L364.7 757.82v6.43z" fill="#faf4fe" fill-rule="evenodd" stroke="#7616ac" stroke-width="2"/></clipPath><linearGradient><stop offset="0" stop-color="#093577"/><stop offset="1" stop-color="#3771c8"/></linearGradient><linearGradient xlink:href="#a" gradientUnits="userSpaceOnUse" gradientTransform="translate(23.142 100.434)" x1="43.969" y1="643.446" x2="215.543" y2="643.446"/><clipPath><path fill="url(#b)" d="M-43.036 980.918l40.73 40.73-40.73 40.73-40.73-40.73z"/></clipPath><linearGradient y2="1009.291" x2="68.821" y1="1009.291" x1="4.821" gradientTransform="matrix(.9 0 0 .9 658.844 -155.517)" gradientUnits="userSpaceOnUse" id="b" xlink:href="#c"/><linearGradient gradientTransform="matrix(0 -.768 .768 0 -749.41 1056.441)" gradientUnits="userSpaceOnUse" y2="1006.469" x2="57.866" y1="1006.469" x1="16.871" xlink:href="#c"/></defs><path d="M32.1 45.383v3.34c0 4.065-5.883 4.113-5.883 0v-3.34h27.04m5.88 0v3.34c0 4.113-5.88 4.065-5.88 0v-3.34h9.01v-10.46c0-2.806-2.26-4.288-3.536-4.45l-3.217-8.22c-.606-1.566-1.92-2.905-4.393-2.905-16.2 0-.634-.022-16.89 0-2.474 0-3.786 1.34-4.392 2.904l-3.22 8.22c-1.274.163-3.53 1.645-3.53 4.452v10.46h3.13m12.13-11.84h8.658c.857 0 1.55.69 1.55 1.548v2.36c0 .86-.693 1.55-1.55 1.55H38.35c-.858 0-1.55-.69-1.55-1.55v-2.36c0-.858.692-1.547 1.55-1.547z" fill="url(#d)" stroke="url(#c)" stroke-width="1.25"/><path d="M42.674 30.278H29.952l2.423-6.36c.303-.91.758-1.565 1.818-1.575H51.16c1.06.01 1.514.666 1.817 1.575l2.423 6.36H42.674z" fill="#fff" stroke="url(#c)" stroke-width=".967"/><path d="M29.25 39.045c-1.5 0-2.716-1.24-2.716-2.772 0-1.53 1.217-2.772 2.717-2.772s2.72 1.243 2.72 2.774c0 1.53-1.218 2.772-2.718 2.772zM56.102 39.045c1.5 0 2.717-1.24 2.717-2.772 0-1.53-1.218-2.772-2.72-2.772-1.5 0-2.715 1.243-2.715 2.774 0 1.53 1.216 2.772 2.716 2.772z" fill="#fff" stroke="url(#c)" stroke-width="1.25"/><rect width="11.753" height="5.457" x="36.801" y="33.545" rx="1.548" stroke="url(#c)" stroke-width="1.25" fill="none"/><path fill="url(#e)" d="M6.237 52.34H61.56v5.152H6.236z"/><path d="M9.085 52.203v-29.56M17.356 52.203v-29.56" stroke="#000" stroke-width="1.25" fill="none"/><rect width="25.898" height="13.695" x=".271" y="11.39" rx="3.709" fill="url(#f)"/><path d="M32.1 45.383v3.34c0 4.065-5.883 4.113-5.883 0v-3.34H32.1m27.04 0v3.34c0 4.113-5.882 4.065-5.882 0v-3.34h5.88" fill="url(#f)" stroke="url(#c)" stroke-width="1.25"/></svg>