<svg xmlns="http://www.w3.org/2000/svg" viewBox="0 0 405 127" height="127" width="405"><defs><marker orient="auto" overflow="visible"><path d="M0 4.52v-9.04" stroke="#000" stroke-width="NaN" fill="none"/></marker><marker orient="auto" overflow="visible"><path d="M1.96 0c0 1.104-.896 2-2 2s-2-.896-2-2 .896-2 2-2 2 .896 2 2z" fill-rule="evenodd" stroke="#000" stroke-width="NaN"/></marker><marker orient="auto" overflow="visible"><path d="M0 4.52v-9.04" stroke="#000" stroke-width="NaN" fill="none"/></marker><marker orient="auto" overflow="visible"><path d="M0 4.52v-9.04" stroke="#000" stroke-width="NaN" fill="none"/></marker><clipPath><path d="M338.53 44.42l69.55-26.556-28.76 100.418-10.95 4.35z" stroke="#000" stroke-width="1.25" fill="none"/></clipPath></defs><rect rx="1" y=".348" x="278.097" height="125.654" width="125.654" stroke="#000" stroke-width="1.25" stroke-linejoin="round" fill="none"/><path d="M379.504 32.257l-36.146-15.01m.967.275l-13.257 7.942-.185.106.034.283m35.304 14.505l-35.584-14.76M317.468 55.09l13.374-29.75m22.772 44.885l12.732-29.742m13.83 45.292l-13.26 7.942-.184.106-13.258 7.942m26.7-69.492l-13.257 7.943-.185.105.116.026m13.548-8.19v53.757m-82.69-15.437v32.3m55.916-1.023l-12.51 7.617c-4.47 2.623-11.354 4.124-19.077 3.97-13.466-.267-24.388-5.137-24.388-11.474m43.464-23.794c-4.466 2.624-11.35 4.125-19.074 3.97-13.466-.267-24.388-5.136-24.388-11.473 0-2.863 2.225-5.48 5.906-7.49l13.816-7.76 36.252 15.133z" stroke="#000" stroke-width="1.25" fill="none"/><ellipse transform="rotate(21.857)" ry="8.12" rx="5.01" cy="-82.075" cx="334.593" stroke="#000" stroke-width="1.25" stroke-linecap="round" stroke-linejoin="round" fill="none"/><path d="M371.777 121.61h28.35" stroke="#000" stroke-width="1.125" fill="none"/><text y="117.119" x="375.885" style="line-height:125%" font-size="14.175" font-family="sans-serif" letter-spacing="0" word-spacing="0"><tspan y="117.119" x="375.885">1m</tspan></text><g transform="matrix(.938 0 0 .938 -14.328 -4.612)" stroke="#000"><path d="M59.024 86.81h-34.12V39.848c0-1.736 1.398-3.135 3.135-3.135h30.983M59.024 58.393H31.56c-1.736 0-3.134-1.4-3.134-3.135V43.39c0-1.737 1.398-3.135 3.135-3.135h27.465M59.024 82.89H31.56c-1.736 0-3.134-1.397-3.134-3.134V67.888c0-1.736 1.398-3.134 3.135-3.134h27.465M32.343 44.006h18.474M32.343 49.324h18.474M32.343 54.642h18.474M32.343 68.548h18.474M32.343 73.866h18.474M32.343 79.184h18.474M55.042 105.856H24.058c-1.737 0-3.135-1.398-3.135-3.135V89.96c0-1.737 1.398-3.135 3.135-3.135h34.966M108.16 36.384h30.986c1.737 0 3.135 1.398 3.135 3.135v46.96h-34.12M108.16 39.926h27.464c1.736 0 3.135 1.398 3.135 3.135v11.87c0 1.737-1.4 3.135-3.137 3.135H108.16M108.16 64.424h27.464c1.736 0 3.135 1.398 3.135 3.135v11.866c0 1.737-1.4 3.135-3.137 3.135H108.16M126.32 46.125a1.385 1.385 0 0 1-1.385 1.385 1.385 1.385 0 0 1-1.386-1.385 1.385 1.385 0 0 1 1.384-1.386 1.385 1.385 0 0 1 1.385 1.384M133.05 46.125a1.385 1.385 0 0 1-1.386 1.385 1.385 1.385 0 0 1-1.386-1.385 1.385 1.385 0 0 1 1.386-1.386 1.385 1.385 0 0 1 1.385 1.384M126.32 51.864a1.385 1.385 0 0 1-1.385 1.386 1.385 1.385 0 0 1-1.386-1.386 1.385 1.385 0 0 1 1.384-1.385 1.385 1.385 0 0 1 1.385 1.383M133.05 51.864a1.385 1.385 0 0 1-1.386 1.386 1.385 1.385 0 0 1-1.386-1.386 1.385 1.385 0 0 1 1.386-1.385 1.385 1.385 0 0 1 1.385 1.383M133.05 76.407a1.385 1.385 0 0 1-1.386 1.385 1.385 1.385 0 0 1-1.386-1.385 1.385 1.385 0 0 1 1.386-1.386 1.385 1.385 0 0 1 1.385 1.388M133.05 70.667a1.385 1.385 0 0 1-1.386 1.386 1.385 1.385 0 0 1-1.386-1.386 1.385 1.385 0 0 1 1.386-1.385 1.385 1.385 0 0 1 1.385 1.385M126.32 76.407a1.385 1.385 0 0 1-1.385 1.385 1.385 1.385 0 0 1-1.386-1.385 1.385 1.385 0 0 1 1.384-1.386 1.385 1.385 0 0 1 1.385 1.388M126.32 70.667a1.385 1.385 0 0 1-1.385 1.386 1.385 1.385 0 0 1-1.386-1.386 1.385 1.385 0 0 1 1.384-1.385 1.385 1.385 0 0 1 1.385 1.385M108.16 86.493h34.967c1.737 0 3.135 1.4 3.135 3.135v12.764c0 1.737-1.398 3.135-3.135 3.135h-30.984" fill="none"/><path d="M62.817 24.86h42.868c1.737 0 3.135 1.397 3.135 3.134v72.65H59.682v-72.65c0-1.737 1.398-3.135 3.135-3.135z" fill="none"/><rect y="28.401" x="63.204" height="18.138" width="42.093" rx="3.135" fill="none"/><rect rx="3.135" width="42.093" height="18.138" x="63.204" y="52.899" fill="none"/><rect y="77.398" x="63.204" height="18.138" width="42.093" rx="3.135" fill="none"/><path d="M67.12 32.15h18.475M67.12 37.47h18.475M67.12 42.788h18.475" fill="none"/><circle cx="91.474" cy="34.6" r="1.385"/><circle r="1.385" cy="34.6" cx="98.203" fill="none"/><circle r="1.385" cy="40.339" cx="91.474" fill="none"/><circle cx="98.203" cy="40.339" r="1.385" fill="none"/><path d="M67.12 56.694h18.475M67.12 62.012h18.475M67.12 67.33h18.475" fill="none"/><circle r="1.385" cy="64.882" cx="98.203"/><circle cx="98.203" cy="59.142" r="1.385" fill="none"/><circle cx="91.474" cy="64.882" r="1.385" fill="none"/><circle r="1.385" cy="59.142" cx="91.474" fill="none"/><path d="M67.12 81.236h18.475M67.12 86.554h18.475M67.12 91.873h18.475" fill="none"/><circle cx="98.203" cy="83.685" r="1.385"/><circle r="1.385" cy="83.685" cx="91.474" fill="none"/><circle r="1.385" cy="89.424" cx="91.474" fill="none"/><circle cx="98.203" cy="89.424" r="1.385" fill="none"/><rect width="57.101" height="19.034" x="55.701" y="100.653" rx="3.135" fill="none"/></g><rect rx="1" y=".348" x="1.248" height="125.654" width="125.654" stroke="#000" stroke-width="1.25" stroke-linejoin="round" fill="none"/><rect width="125.654" height="125.654" x="139.673" y=".997" rx="1" stroke="#000" stroke-width="1.25" stroke-linejoin="round" fill="none"/><g stroke="#000" stroke-width="1.25" fill="none"><path d="M158.722 28.864l13.353 29.828M158.72 52.98l8.387 18.734M158.722 77.1l3.418 7.635M215.815 39.047l-43.817 19.616M209.805 52.534l-42.775 19.15M210.847 52.068l-1.042.466M197.62 68.788l-35.56 15.918M185.43 85.04L158.72 97M173.244 101.295l-8.328 3.728M215.818 39.048l1.533 3.426M176.64 21.39l5.22 11.657M165.846 21.396l11.046 24.672M207.768 21.384l-25.986 11.633M220.63 26.423L176.815 46.04M229.172 21.377l1.494 3.338M220.634 26.424l3.27 7.307"/></g><path stroke="#000" stroke-width="1.25" d="M158.983 21.162h83.712v83.712h-83.712z" fill="none"/><g stroke="#000" stroke-width="1.25" fill="none"><path d="M223.022 42.22v8.68M227.362 50.712h-8.68"/></g><g stroke="#000" stroke-width="1.25" fill="none"><path d="M235.022 54.22v8.68M239.362 62.712h-8.68"/></g><g stroke="#000" stroke-width="1.25" fill="none"><path d="M205.022 66.22v8.68M209.362 74.712h-8.68"/></g><g stroke="#000" stroke-width="1.25" fill="none"><path d="M217.022 78.22v8.68M221.362 86.712h-8.68"/></g><g stroke="#000" stroke-width="1.25" fill="none"><path d="M229.022 90.22v8.68M233.362 98.712h-8.68"/></g><path d="M233.775 122.537h28.35" stroke="#000" stroke-width="1.125" fill="none"/><text y="118.048" x="233.883" style="line-height:125%" font-size="14.175" font-family="sans-serif" letter-spacing="0" word-spacing="0"><tspan x="233.883" y="118.048">1μm</tspan></text></svg>