<svg xmlns="http://www.w3.org/2000/svg" viewBox="0 0 407 129" height="129" width="407"><defs><marker orient="auto" overflow="visible"><path d="M0 4.52v-9.04" stroke="#000" stroke-width="NaN" fill="none"/></marker><marker orient="auto" overflow="visible"><path d="M1.96 0c0 1.104-.896 2-2 2s-2-.896-2-2 .896-2 2-2 2 .896 2 2z" fill-rule="evenodd" stroke="#000" stroke-width="NaN"/></marker><marker orient="auto" overflow="visible"><path d="M0 4.52v-9.04" stroke="#000" stroke-width="NaN" fill="none"/></marker><marker orient="auto" overflow="visible"><path d="M0 4.52v-9.04" stroke="#000" stroke-width="NaN" fill="none"/></marker><clipPath><path d="M338.53 44.42l69.55-26.556-28.76 100.418-10.95 4.35z" stroke="#000" stroke-width="1.25" fill="none"/></clipPath></defs><g transform="translate(-43.258 -7.486)" stroke="#000" stroke-linejoin="round"><g transform="translate(1.48 -2.009)"><circle r="13.006" cy="74.157" cx="246.278" fill="none"/><circle r="31.006" cy="74.157" cx="246.278" fill="none"/><circle r="50.123" cy="74.157" cx="246.278" fill="none"/><g transform="matrix(.816 0 0 .816 33.995 14.951)"><circle cx="260.028" cy="34.843" r="3.03"/><circle r="3.03" cy="110.2" cx="260.028"/><circle r="3.03" cy="222.349" cx="-72.521" transform="rotate(-90)"/><circle cx="-72.521" cy="297.706" r="3.03" transform="rotate(-90)"/></g><g transform="matrix(.612 -.612 .612 .612 45.745 191.768)"><circle r="2.858" cy="10.197" cx="259.85"/><circle cx="259.85" cy="125.259" r="2.858"/><circle transform="rotate(-90)" cx="-67.728" cy="202.319" r="2.858"/><circle transform="rotate(-90)" r="2.858" cy="317.38" cx="-67.728"/></g></g><rect rx="1" y="9.32" x="184.931" height="125.654" width="125.654" fill="none"/></g><g transform="translate(-306.788 -210.882)" stroke="#000" stroke-width="1.25" fill="none"><rect rx="1" y="212.961" x="585.688" height="125.654" width="125.654"/><g transform="translate(19.808 1.481)"><rect rx="1" y="231.362" x="585.207" height="87" width="87"/><path d="M637.08 231.36l-.4 1.16M637.536 230.037l-.456 1.324M607.538 231.36l2.858 17.94M610.396 249.3l5.648 4.508M636.68 232.52l-20.636 21.288M616.044 253.808l.127.165M638.684 231.36l18.448 21.267M637.536 230.037l1.148 1.324M616.17 253.973l9.465 4.812M625.635 258.785l5.758-.765M596.88 259.865l13.516-10.566M593.788 260.23l3.093-.365M590.954 261.595l2.834-1.366M596.88 259.865l12.873 9.538M616.17 253.973l-6.417 15.43M657.132 252.627l-1.682 9.036M655.45 261.663l2.667 2.685M631.393 258.02l10.272 7.995M641.665 266.015l2.137-.057M643.802 265.958l11.648-4.295M625.635 258.785l-6.154 14.176M609.753 269.403l1.638 4.06M611.39 273.463l8.09-.502M643.802 265.958l3.493 17.036M658.117 264.348l2.34 18.226M660.458 282.574l.126.05M619.48 272.96l10.41 8.08M641.665 266.015L629.89 281.04M647.295 282.994l10.735 1.46M658.03 284.455l2.428-1.88M658.03 284.455l-1.455 4.187M629.89 281.04l.302 4.962M630.192 286.002l10.032 3.877M640.224 289.88l7.07-6.886M590.954 261.595l12.45 23.624M611.39 273.463l-7.985 11.756M640.224 289.88l2.746 4.12M642.97 294l2.786 1.79M645.756 295.79l10.82-7.148M642.97 294l-5.39 6.732M630.192 286.002l-6.024 6.417M645.756 295.79l2.375 4.254M656.575 288.642l3.45 11.494M660.024 300.136l9.686-5.795M618.697 295.31l5.47-2.89M648.13 300.044l11.275 1.303M660.024 300.136l-.62 1.21M659.405 301.347l.777 2.57M603.405 285.22l-1.98 7.514M601.424 292.734l17.273 2.576M618.697 295.31l3.482 12.54M660.182 303.918l-5.53 7.177M612.367 312.043l9.812-4.194M660.584 282.624l11.623-1.66M658.117 264.348l14.09 2.887M648.13 300.044l-4.156 13.377M643.974 313.42l10.678-2.325M637.58 300.732l3.145 16.108M643.974 313.42l-3.25 3.42M586.006 302.778l15.418-10.044M586.006 302.778l26.36 9.265M622.18 307.85l8.226 10.512M640.725 316.84l-.977 1.52M657.132 252.627l15.074-10.105M612.367 312.043l2.842 6.32M585.208 262.066l5.746-.47M669.71 294.34l2.498.376M660.182 303.918l12.025 9.756M654.652 311.095l7.04 7.266"/></g></g><g transform="translate(-227.7 -216.362)" stroke="#000" stroke-width="1.25" fill="none"><rect rx="1" y="218.463" x="232.145" height="125.654" width="125.654"/><path d="M252.02 247.743v70.5h89M340.15 311.59s-8.26.188-10.364-.09c-.707-.092-1.5-.118-2.067-.553-.317-.24-.564-.635-.597-1.03l-.873-10.39h-.598l-.873 10.39c-.035.395-.28.79-.597 1.03-.566.435-1.36.46-2.067.554-2.104.28-6.364.09-6.364.09h-.603s-.26.19-2.365-.09c-.707-.09-1.5-.117-2.067-.552-.316-.24-.577-.634-.596-1.03l-.873-18.39h-.6l-.872 18.39c-.02.396-.28.79-.596 1.03-.566.435-1.36.46-2.067.554-2.104.278-6.364.09-6.364.09h-1.03s-2.26.188-4.362-.09c-.707-.092-1.502-.118-2.068-.553-.314-.24-.573-.635-.595-1.03l-2.873-52.39h-.598l-2.873 52.39c-.02.395-.28.79-.594 1.03-.566.434-1.36.55-2.068.642-2.103.277-4.364 0-4.364 0h-.602s-4.26.188-6.364-.09c-.707-.092-1.502-.118-2.068-.553-.314-.24-.576-.635-.595-1.03l-.873-18.39h-.598l-.873 18.39c-.02.395-.28.79-.594 1.03-.566.434-1.36.46-2.068.553-2.103.278-6.364.09-6.364.09"/></g></svg>